# xmcd
# Track frame offsets:
# 150
# 15032
# 32242
# 52285
# 71605
# 85307
# 97755
# 110790
# 125077
# 139762
# 155752
# 169975
#
# Disc length: 2506 seconds
# Revision: 0
# Processed by: cddbd v1.5.1PL2 Copyright (c) Steve Scherf et al.
# Submitted via: VisiTrax 2.10.0.248 - For more info visit www.synapsa.com
#
DISCID=a609c80c
DTITLE=Parton, Dolly - Hungry Again
DYEAR=1998
DGENRE=Country
TTITLE0=Hungry Again
TTITLE1=Salt In My Tears, The
TTITLE2=Honky Tonk Songs
TTITLE3=Blue Valley Songbird
TTITLE4=I Wanna Go Back There
TTITLE5=When Jesus Comes Calling For Me
TTITLE6=Time And Tears
TTITLE7=I'll Never Say Goodbye
TTITLE8=Camel's Heart, The
TTITLE9=I Still Lost You
TTITLE10=Paradise Road
TTITLE11=Shine On
EXTD=Decca\nDRND-70041\nProduced by Dolly Parton and Richie Owens\n1998
EXTT0=
EXTT1=
EXTT2=
EXTT3=
EXTT4=
EXTT5=
EXTT6=
EXTT7=
EXTT8=
EXTT9=
EXTT10=
EXTT11=
PLAYORDER=
